<?xml version="1.0" encoding="iso-8859-1"?>
<!-- Generator: Adobe Illustrator 19.0.0, SVG Export Plug-In . SVG Version: 6.00 Build 0)  -->
<svg version="1.1" id="Layer_1" xmlns="http://www.w3.org/2000/svg" xmlns:xlink="http://www.w3.org/1999/xlink" x="0px" y="0px"
	 viewBox="0 0 281.714 281.714" style="enable-background:new 0 0 281.714 281.714;" xml:space="preserve">
<g>
	<path style="fill:#28D2E4;" d="M222.944,274.214H58.769c-5.523,0-10-4.477-10-10V17.5c0-5.523,4.477-10,10-10h164.175
		c5.523,0,10,4.477,10,10v246.714C232.944,269.737,228.467,274.214,222.944,274.214z"/>
	<rect x="48.769" y="51.857" style="fill:#FFDB77;" width="184.175" height="156.207"/>
	<rect x="78.769" y="113.399" style="fill:#13829B;" width="62.088" height="64.665"/>
	<rect x="140.857" y="113.399" style="fill:#13829B;" width="62.088" height="64.665"/>
	<rect x="78.769" y="81.857" style="fill:#28D2E4;" width="124.176" height="31.542"/>
	<g>
		<path style="fill:#22313F;" d="M222.945,0H58.769c-9.649,0-17.5,7.851-17.5,17.5c0,7.239,0,228.947,0,246.714
			c0,9.649,7.851,17.5,17.5,17.5h164.176c9.649,0,17.5-7.851,17.5-17.5c0-15.578,0-239.076,0-246.714
			C240.445,7.851,232.594,0,222.945,0z M58.769,15h164.176c1.379,0,2.5,1.122,2.5,2.5v26.857H56.269V17.5
			C56.269,16.122,57.39,15,58.769,15z M225.445,200.564H56.269V59.357h169.176L225.445,200.564L225.445,200.564z M222.945,266.714
			H58.769c-1.379,0-2.5-1.122-2.5-2.5v-48.65h169.176v48.65C225.445,265.592,224.324,266.714,222.945,266.714z"/>
		<path style="fill:#22313F;" d="M78.769,185.564c5.462,0,118.736,0,124.176,0c4.143,0,7.5-3.358,7.5-7.5c0-9.872,0-80.885,0-96.207
			c0-4.142-3.357-7.5-7.5-7.5H78.769c-4.143,0-7.5,3.358-7.5,7.5c0,15.318,0,86.293,0,96.207
			C71.269,182.206,74.626,185.564,78.769,185.564z M86.269,120.898h47.088v49.666H86.269V120.898z M195.445,170.564h-47.088v-49.666
			h47.088V170.564z M86.269,89.357h109.176v16.541c-15.812,0-93.328,0-109.176,0C86.269,105.898,86.269,89.357,86.269,89.357z"/>
		<path style="fill:#22313F;" d="M140.857,219.857c-12.131,0-22,9.869-22,22s9.869,22,22,22s22-9.869,22-22
			S152.988,219.857,140.857,219.857z M140.857,248.857c-3.859,0-7-3.14-7-7s3.141-7,7-7s7,3.14,7,7S144.716,248.857,140.857,248.857
			z"/>
		<path style="fill:#22313F;" d="M119.524,37.023h42.666c4.143,0,7.5-3.358,7.5-7.5s-3.357-7.5-7.5-7.5h-42.666
			c-4.143,0-7.5,3.358-7.5,7.5S115.381,37.023,119.524,37.023z"/>
		<path style="fill:#22313F;" d="M184.107,37.023h6.25c4.143,0,7.5-3.358,7.5-7.5s-3.357-7.5-7.5-7.5h-6.25
			c-4.143,0-7.5,3.358-7.5,7.5S179.964,37.023,184.107,37.023z"/>
		<path style="fill:#22313F;" d="M163.651,143.064h16.5c4.143,0,7.5-3.358,7.5-7.5s-3.357-7.5-7.5-7.5h-16.5
			c-4.143,0-7.5,3.358-7.5,7.5S159.508,143.064,163.651,143.064z"/>
		<path style="fill:#22313F;" d="M163.651,163.398h16.5c4.143,0,7.5-3.358,7.5-7.5s-3.357-7.5-7.5-7.5h-16.5
			c-4.143,0-7.5,3.358-7.5,7.5S159.508,163.398,163.651,163.398z"/>
	</g>
</g>
<g>
</g>
<g>
</g>
<g>
</g>
<g>
</g>
<g>
</g>
<g>
</g>
<g>
</g>
<g>
</g>
<g>
</g>
<g>
</g>
<g>
</g>
<g>
</g>
<g>
</g>
<g>
</g>
<g>
</g>
</svg>
